PathFileType	4	(X/Y/Z)	C:/Users/opensim2020/Desktop/walking_exp_matlab/subject01_walking05_straight_04.trc																																																																																																																															
DataRate	CameraRate	NumFrames	NumMarkers	Units	OrigDataRate	OrigDataStartFrame	OrigNumFrames																																																																																																																											
100	100	7	43	mm	100	2881	283																																																																																																																											
Frame#	Time	LFHD			RFHD			LBHD			RBHD			C7			T10			CLAV			STRN			RBAK			LSHO			LUPA			LELB			LFRM			LWRA			LWRB			LFIN			RSHO			RUPA			RELB			RFRM			RWRA			RWRB			RFIN			LASI			RASI			LPSI			RPSI			LTHI			LKNE			LTIB			LANK			LHEE			LTOE			RTHI			RKNE			RTIB			RANK			RHEE			RTOE			*39			*40			*41			*42		
		X1	Y1	Z1	X2	Y2	Z2	X3	Y3	Z3	X4	Y4	Z4	X5	Y5	Z5	X6	Y6	Z6	X7	Y7	Z7	X8	Y8	Z8	X9	Y9	Z9	X10	Y10	Z10	X11	Y11	Z11	X12	Y12	Z12	X13	Y13	Z13	X14	Y14	Z14	X15	Y15	Z15	X16	Y16	Z16	X17	Y17	Z17	X18	Y18	Z18	X19	Y19	Z19	X20	Y20	Z20	X21	Y21	Z21	X22	Y22	Z22	X23	Y23	Z23	X24	Y24	Z24	X25	Y25	Z25	X26	Y26	Z26	X27	Y27	Z27	X28	Y28	Z28	X29	Y29	Z29	X30	Y30	Z30	X31	Y31	Z31	X32	Y32	Z32	X33	Y33	Z33	X34	Y34	Z34	X35	Y35	Z35	X36	Y36	Z36	X37	Y37	Z37	X38	Y38	Z38	X39	Y39	Z39	X40	Y40	Z40	X41	Y41	Z41	X42	Y42	Z42	X43	Y43	Z43
																																																																																																																																		
107	1.06	-472.90939	1674.30823	-1544.74121	-452.0759	1682.95105	-1432.92505	-588.6759	1630.11169	-1527.47253	-570.42548	1638.27197	-1408.74463	-623.63483	1436.31604	-1483.16895	-659.35138	1144.38879	-1467.47791	-480.20303	1368.60522	-1479.54578	-436.63412	1214.10706	-1478.2157	-679.02252	1243.76379	-1400.26685	-543.14813	1394.1731	-1640.71851	-562.4967	1210.35498	-1724.51746	-560.97876	1059.0144	-1730.64331	-507.40479	959.44031	-1759.79785	-413.26321	855.51617	-1744.52393	-466.91055	844.66443	-1770.73889	-410.14383	781.99084	-1780.54309	-546.68292	1401.26672	-1330.32239	-609.45673	1205.76013	-1223.49988	-613.43671	1081.60535	-1218.45081	-594.43854	964.21399	-1184.54614	-525.90979	839.5462	-1201.94666	-567.03607	846.64337	-1160.11768	-539.27679	764.03461	-1163.89014	-487.31628	935.52283	-1568.54297	-492.89813	941.97333	-1351.88721	-674.97162	949.25604	-1517.41418	-674.94684	950.30627	-1371.92896	-516.58209	601.63806	-1608.24658	-526.09216	467.73813	-1585.7478	-585.90613	286.05365	-1590.17505	-623.92212	73.04353	-1528.63062	-670.82196	45.45732	-1476.18811	-476.70239	34.74063	-1528.04187	-466.12927	618.0802	-1281.88879	-430.9527	465.13812	-1298.60022	-568.37653	356.3493	-1303.85852	-704.08301	202.76942	-1355.74707	-755.96576	201.6573	-1414.59888	-636.80756	75.31545	-1342.46143	-465.18518	1716.35315	-1455.47424	-1973.19849	1023.30646	3101.90332	-2012.5448	1021.95752	3140.6582	NaN	NaN	NaN
108	1.07	-463.26804	1674.41296	-1544.51782	-442.45169	1682.84412	-1432.68188	-579.10999	1630.35339	-1527.38745	-560.89313	1638.29602	-1408.57666	-614.26532	1436.42322	-1483.49426	-650.19049	1144.55212	-1468.06958	-470.94247	1368.67261	-1479.66028	-427.52722	1214.08545	-1478.65674	-669.85248	1243.82581	-1400.91418	-533.73157	1394.58044	-1640.95679	-552.36719	1210.92969	-1725.26025	-548.75922	1059.47705	-1732.05872	-492.4393	961.34277	-1761.63513	-394.94638	860.5625	-1747.22021	-448.46234	847.90729	-1772.63086	-389.90225	787.65515	-1783.79773	-537.54779	1401.21021	-1330.55139	-602.39685	1205.76501	-1224.53943	-606.98132	1081.84253	-1219.48364	-589.85107	964.33057	-1185.2937	-522.74927	838.68262	-1201.87109	-564.21313	846.38507	-1160.33984	-537.79083	763.51514	-1163.60559	-479.11124	935.3385	-1569.51355	-483.62598	942.37158	-1352.94653	-666.38904	949.30157	-1517.14856	-665.63507	950.64838	-1371.62036	-511.58255	601.26624	-1608.6864	-523.07349	467.36105	-1586.22559	-584.25525	286.26489	-1590.3186	-623.70258	73.39602	-1528.57166	-670.82996	46.35688	-1476.24695	-476.51242	34.70205	-1528.04321	-452.48672	619.81329	-1281.97791	-415.35065	467.35382	-1299.50623	-549.0069	353.28067	-1303.89172	-679.41895	195.27045	-1356.11694	-732.10822	191.14095	-1414.94751	-605.0224	72.68976	-1341.94226	-455.84412	1715.94006	-1455.27271	-1973.12561	1023.4975	3101.90649	-2012.65222	1022.11285	3140.48877	NaN	NaN	NaN
109	1.08	-453.62271	1674.44702	-1544.23096	-432.94403	1682.73083	-1432.45728	-569.7019	1630.58972	-1527.45618	-551.32343	1638.19531	-1408.34119	-604.88708	1436.49512	-1483.71716	-641.41791	1144.72461	-1468.64636	-461.65875	1368.65076	-1479.82996	-418.25888	1213.97571	-1479.02209	-660.67627	1243.79724	-1401.60156	-524.26184	1394.92737	-1641.08899	-542.31299	1211.61169	-1726.18262	-536.74603	1059.93091	-1733.40833	-477.71741	963.16284	-1763.20703	-376.82416	865.9007	-1749.89709	-430.22455	851.29419	-1774.42615	-369.84528	793.28815	-1786.66675	-528.5777	1401.12012	-1330.6853	-595.30988	1205.82654	-1225.66138	-600.50281	1082.07495	-1220.58521	-585.29633	964.57806	-1186.11096	-519.67108	837.87811	-1201.85266	-561.49493	846.22986	-1160.72888	-536.18793	763.15167	-1163.49536	-470.94797	934.96906	-1570.28516	-474.32779	942.80829	-1353.88892	-657.80573	949.2265	-1516.95422	-656.38525	950.83136	-1371.32104	-506.77048	600.85748	-1609.00623	-519.95795	466.97733	-1586.60889	-582.17645	286.35953	-1590.37146	-623.36969	73.73659	-1528.54565	-671.01587	47.49881	-1476.37683	-476.20972	34.65126	-1528.00671	-439.19696	621.57617	-1282.14221	-400.43756	469.30338	-1300.54993	-529.64984	349.5683	-1304.0509	-653.88611	186.80827	-1355.79468	-707.00378	179.28435	-1414.80603	-572.32104	69.86766	-1341.40002	-446.23035	1715.82214	-1454.91211	-1973.10059	1023.39807	3101.92896	-2012.54138	1022.0354	3140.65161	NaN	NaN	NaN
110	1.09	-444.11591	1674.46851	-1543.96667	-423.38416	1682.49854	-1432.04993	-560.1803	1630.63611	-1527.24768	-541.88092	1638.0813	-1408.2666	-595.48224	1436.48596	-1483.86389	-631.90814	1144.68213	-1469.15723	-452.30209	1368.62183	-1479.95752	-409.07056	1213.83679	-1479.44702	-651.42993	1243.6748	-1402.27832	-514.79224	1395.27966	-1641.22742	-532.34161	1212.03345	-1726.58386	-524.80713	1060.34302	-1734.70471	-463.06201	965.08191	-1764.78149	-359.04111	871.35663	-1752.33655	-412.27408	854.78522	-1775.99585	-350.01151	799.0968	-1789.25513	-519.3609	1400.89636	-1330.62842	-587.99286	1205.85156	-1226.66296	-594.08197	1082.28125	-1221.48779	-580.72681	964.66736	-1186.88293	-516.6972	837.09888	-1201.78601	-558.49677	846.13507	-1161.00049	-534.28943	762.7597	-1163.29272	-462.65933	934.49475	-1570.89465	-464.95575	943.07709	-1354.70264	-649.21655	949.06335	-1516.65698	-647.09412	950.9259	-1370.93518	-501.89587	600.59985	-1608.8772	-516.61847	466.59348	-1586.88525	-580.0614	286.58548	-1590.46814	-623.04468	74.22279	-1528.53271	-670.79126	48.22395	-1476.31543	-476.43506	34.6306	-1528.18347	-426.85242	623.06262	-1282.67529	-385.92535	471.00854	-1301.48914	-510.56464	345.48584	-1304.12866	-627.77148	177.59117	-1356.21155	-680.67816	166.61261	-1414.57251	-539.21887	66.72649	-1340.9491	-436.69644	1715.70825	-1454.57434	-1973.17944	1023.19409	3101.8645	-2012.45435	1021.92365	3140.71021	NaN	NaN	NaN
111	1.1	-434.54535	1674.46252	-1543.5531	-413.87521	1682.31531	-1431.66992	-550.69391	1630.61743	-1527.05444	-532.41797	1637.84106	-1407.92505	-586.01666	1436.38611	-1483.86438	-622.76147	1144.68347	-1469.62317	-442.90808	1368.43237	-1479.87585	-399.90353	1213.6228	-1479.80859	-642.11169	1243.4397	-1402.88733	-505.31201	1395.53723	-1641.27051	-522.37274	1212.55737	-1727.23694	-513.03925	1060.72034	-1735.92322	-448.64285	967.03143	-1766.24561	-341.57526	876.80286	-1754.52588	-394.47418	858.38879	-1777.51672	-330.50046	805.06128	-1791.61816	-510.20374	1400.6521	-1330.70386	-580.69501	1205.81702	-1227.58899	-587.54712	1082.36951	-1222.51794	-575.82159	964.72595	-1187.50916	-512.84302	836.60736	-1201.38049	-555.29431	846.16339	-1161.45337	-531.974	762.4043	-1163.03125	-454.38834	933.91962	-1571.37585	-455.60693	943.21259	-1355.33386	-640.64307	948.8501	-1516.35059	-637.82452	950.8941	-1370.61133	-497.13705	600.29211	-1609.2207	-513.32147	466.1792	-1587.14478	-577.8111	286.67261	-1590.38257	-622.651	74.70999	-1528.49524	-670.36108	48.9003	-1476.14307	-476.28369	34.5114	-1528.1908	-413.79523	624.85767	-1282.85144	-372.3949	472.28946	-1302.60864	-491.08984	340.88251	-1304.82129	-601.03296	167.99327	-1356.25146	-653.4502	153.64336	-1414.43445	-505.54208	63.56305	-1340.32922	-426.86368	1715.91345	-1454.03455	-1973.19873	1023.41504	3101.84351	-2012.58105	1022.01691	3140.47021	NaN	NaN	NaN
112	1.11	-425.03619	1674.35583	-1543.16162	-404.47522	1682.01599	-1431.18628	-541.31268	1630.56152	-1526.87146	-522.99146	1637.55347	-1407.60742	-576.56305	1436.21973	-1483.86365	-613.6153	1144.62158	-1469.96924	-433.44568	1368.26196	-1479.9043	-390.59567	1213.3219	-1480.16919	-632.78564	1243.13696	-1403.41968	-495.77133	1395.66174	-1641.19385	-512.36053	1212.91528	-1727.69409	-501.84766	1061.03101	-1736.99695	-434.45444	969.03375	-1767.63257	-324.47913	882.47137	-1756.6947	-376.87067	862.06451	-1778.91833	-311.4223	811.1264	-1793.86462	-500.87335	1400.30286	-1330.64587	-573.2218	1205.75793	-1228.38269	-581.03369	1082.55579	-1223.36743	-570.85962	964.84753	-1188.13049	-509.30328	835.9682	-1201.14771	-551.83258	846.02606	-1161.63367	-529.50244	762.00214	-1162.84802	-446.71835	933.04425	-1571.94568	-446.18478	943.23224	-1355.85352	-632.02582	948.5722	-1515.98706	-628.49408	950.797	-1370.13611	-491.94583	599.55298	-1609.50806	-509.9025	465.82813	-1587.25415	-575.66724	286.85568	-1590.24902	-622.26501	75.20509	-1528.50366	-670.15533	49.83898	-1476.11707	-476.11206	34.53776	-1528.19751	-401.91937	625.65558	-1283.06836	-359.35507	473.19675	-1303.6709	-472.21182	336.1463	-1305.14758	-573.58594	158.09325	-1356.21082	-625.6825	139.92442	-1414.62012	-471.58099	60.44806	-1339.56213	-417.80771	1715.32214	-1453.63892	-1973.15308	1023.32074	3101.84082	-2012.4928	1021.94727	3140.68433	NaN	NaN	NaN
113	1.12	-415.54419	1674.21533	-1542.62817	-395.06512	1681.68982	-1430.68591	-531.91522	1630.39453	-1526.57068	-513.58655	1637.14319	-1407.30042	-567.07196	1436.02246	-1483.83142	-604.38831	1144.48914	-1470.10168	-424.00723	1367.97522	-1479.88672	-381.30756	1212.94885	-1480.46204	-623.38605	1242.80981	-1403.85229	-486.31995	1395.77588	-1641.18286	-502.33078	1213.12012	-1727.93726	-489.91583	1061.18274	-1737.89697	-420.37109	970.95105	-1768.85071	-307.6655	888.12854	-1758.65308	-359.56183	865.8952	-1780.28198	-292.52408	817.17395	-1795.80261	-491.50232	1399.89734	-1330.58716	-565.80969	1205.71069	-1229.18298	-574.40887	1082.66028	-1224.15747	-565.81372	964.98792	-1188.7207	-504.86237	835.53461	-1200.625	-548.12573	845.94598	-1161.95923	-526.80286	761.73029	-1162.78577	-437.88174	932.62244	-1572.11328	-436.80011	943.18311	-1356.27112	-623.39093	948.30554	-1515.51135	-619.19501	950.62268	-1369.75793	-486.82074	599.23901	-1609.59009	-506.39987	465.47974	-1587.37781	-573.60919	287.28473	-1590.16467	-621.84668	75.70584	-1528.40271	-669.8822	50.74428	-1476.01611	-475.651	34.26161	-1527.81323	-390.65402	626.61591	-1283.62109	-347.06378	473.91806	-1304.69922	-453.2153	331.10355	-1305.44849	-545.10693	147.86557	-1356.19312	-596.18475	126.30996	-1414.40894	-436.27463	57.94387	-1338.94409	-408.42267	1715.0564	-1453.08813	-1973.00708	1023.90155	3102.11157	-2012.54517	1022.03461	3140.55518	NaN	NaN	NaN
